<?xml version="1.0" encoding="iso-8859-1"?>
<!-- Generator: Adobe Illustrator 19.0.0, SVG Export Plug-In . SVG Version: 6.00 Build 0)  -->
<svg version="1.1" id="Capa_1" xmlns="http://www.w3.org/2000/svg" xmlns:xlink="http://www.w3.org/1999/xlink" x="0px" y="0px"
	 viewBox="0 0 480 480" style="enable-background:new 0 0 480 480;" xml:space="preserve">
<linearGradient id="SVGID_1_" gradientUnits="userSpaceOnUse" x1="-56.875" y1="585.1194" x2="2.986" y2="585.1194" gradientTransform="matrix(8 0 0 -8 455 4940.9492)">
	<stop  offset="0" style="stop-color:#4761AC"/>
	<stop  offset="1" style="stop-color:#54C2EF"/>
</linearGradient>
<path style="fill:url(#SVGID_1_);" d="M472,63.994c-4.418,0-8,3.582-8,8v368H8c-4.418,0-8,3.582-8,8s3.582,8,8,8h464
	c4.418,0,8-3.582,8-8v-376C480,67.576,476.418,63.994,472,63.994z"/>
<g>
	
		<linearGradient id="SVGID_2_" gradientUnits="userSpaceOnUse" x1="-56.875" y1="576.6194" x2="2.986" y2="576.6194" gradientTransform="matrix(8 0 0 -8 455 4940.9492)">
		<stop  offset="0" style="stop-color:#4761AC"/>
		<stop  offset="1" style="stop-color:#54C2EF"/>
	</linearGradient>
	<path style="fill:url(#SVGID_2_);" d="M48,231.994c-4.418,0-8,3.582-8,8v176c0,4.418,3.582,8,8,8h96c4.418,0,8-3.582,8-8v-176
		c0-4.418-3.582-8-8-8H48z M136,407.994H56v-160h80V407.994z"/>
	
		<linearGradient id="SVGID_3_" gradientUnits="userSpaceOnUse" x1="-56.875" y1="582.6194" x2="2.986" y2="582.6194" gradientTransform="matrix(8 0 0 -8 455 4940.9492)">
		<stop  offset="0" style="stop-color:#4761AC"/>
		<stop  offset="1" style="stop-color:#54C2EF"/>
	</linearGradient>
	<path style="fill:url(#SVGID_3_);" d="M192,135.994c-4.418,0-8,3.582-8,8v272c0,4.418,3.582,8,8,8h96c4.418,0,8-3.582,8-8v-272
		c0-4.418-3.582-8-8-8H192z M280,407.994h-80v-256h80V407.994z"/>
	
		<linearGradient id="SVGID_4_" gradientUnits="userSpaceOnUse" x1="-56.875" y1="587.6194" x2="2.986" y2="587.6194" gradientTransform="matrix(8 0 0 -8 455 4940.9492)">
		<stop  offset="0" style="stop-color:#4761AC"/>
		<stop  offset="1" style="stop-color:#54C2EF"/>
	</linearGradient>
	<path style="fill:url(#SVGID_4_);" d="M336,423.994h96c4.418,0,8-3.582,8-8v-352c0-4.418-3.582-8-8-8h-96c-4.418,0-8,3.582-8,8v352
		C328,420.413,331.582,423.994,336,423.994z M344,71.994h80v336h-80V71.994z"/>
	
		<linearGradient id="SVGID_5_" gradientUnits="userSpaceOnUse" x1="-56.8748" y1="602.1188" x2="2.9862" y2="602.1188" gradientTransform="matrix(8 0 0 -8 455 4940.9492)">
		<stop  offset="0" style="stop-color:#4761AC"/>
		<stop  offset="1" style="stop-color:#54C2EF"/>
	</linearGradient>
	<path style="fill:url(#SVGID_5_);" d="M2.344,221.65c3.124,3.123,8.188,3.123,11.312,0L104,131.306l18.344,18.344
		c3.124,3.123,8.188,3.123,11.312,0L200,83.306l26.344,26.344c3.13,3.119,8.195,3.11,11.314-0.02
		c1.283-1.287,2.089-2.974,2.286-4.78l8-72c0.467-4.394-2.717-8.333-7.111-8.8c-0.562-0.06-1.128-0.06-1.689,0l-72,8
		c-4.392,0.479-7.565,4.427-7.086,8.82c0.197,1.807,1.003,3.493,2.286,4.78l26.344,26.344L128,132.682l-18.344-18.344
		c-3.124-3.123-8.188-3.123-11.312,0l-96,96C-0.779,213.462-0.779,218.526,2.344,221.65L2.344,221.65z M230.944,41.05l-5.056,45.512
		l-40.456-40.456L230.944,41.05z"/>
	
		<linearGradient id="SVGID_6_" gradientUnits="userSpaceOnUse" x1="-56.875" y1="570.6194" x2="2.986" y2="570.6194" gradientTransform="matrix(8 0 0 -8 455 4940.9492)">
		<stop  offset="0" style="stop-color:#4761AC"/>
		<stop  offset="1" style="stop-color:#54C2EF"/>
	</linearGradient>
	<path style="fill:url(#SVGID_6_);" d="M80,391.994c4.418,0,8-3.582,8-8v-16c0-4.418-3.582-8-8-8s-8,3.582-8,8v16
		C72,388.413,75.582,391.994,80,391.994z"/>
	
		<linearGradient id="SVGID_7_" gradientUnits="userSpaceOnUse" x1="-56.875" y1="577.6194" x2="2.986" y2="577.6194" gradientTransform="matrix(8 0 0 -8 455 4940.9492)">
		<stop  offset="0" style="stop-color:#4761AC"/>
		<stop  offset="1" style="stop-color:#54C2EF"/>
	</linearGradient>
	<path style="fill:url(#SVGID_7_);" d="M80,343.994c4.418,0,8-3.582,8-8v-32c0-4.418-3.582-8-8-8s-8,3.582-8,8v32
		C72,340.413,75.582,343.994,80,343.994z"/>
	
		<linearGradient id="SVGID_8_" gradientUnits="userSpaceOnUse" x1="-56.875" y1="570.6194" x2="2.986" y2="570.6194" gradientTransform="matrix(8 0 0 -8 455 4940.9492)">
		<stop  offset="0" style="stop-color:#4761AC"/>
		<stop  offset="1" style="stop-color:#54C2EF"/>
	</linearGradient>
	<path style="fill:url(#SVGID_8_);" d="M224,391.994c4.418,0,8-3.582,8-8v-16c0-4.418-3.582-8-8-8s-8,3.582-8,8v16
		C216,388.413,219.582,391.994,224,391.994z"/>
	
		<linearGradient id="SVGID_9_" gradientUnits="userSpaceOnUse" x1="-56.875" y1="580.6194" x2="2.986" y2="580.6194" gradientTransform="matrix(8 0 0 -8 455 4940.9492)">
		<stop  offset="0" style="stop-color:#4761AC"/>
		<stop  offset="1" style="stop-color:#54C2EF"/>
	</linearGradient>
	<path style="fill:url(#SVGID_9_);" d="M224,343.994c4.418,0,8-3.582,8-8v-80c0-4.418-3.582-8-8-8s-8,3.582-8,8v80
		C216,340.413,219.582,343.994,224,343.994z"/>
	
		<linearGradient id="SVGID_10_" gradientUnits="userSpaceOnUse" x1="-56.875" y1="570.6194" x2="2.986" y2="570.6194" gradientTransform="matrix(8 0 0 -8 455 4940.9492)">
		<stop  offset="0" style="stop-color:#4761AC"/>
		<stop  offset="1" style="stop-color:#54C2EF"/>
	</linearGradient>
	<path style="fill:url(#SVGID_10_);" d="M368,359.994c-4.418,0-8,3.582-8,8v16c0,4.418,3.582,8,8,8s8-3.582,8-8v-16
		C376,363.576,372.418,359.994,368,359.994z"/>
	
		<linearGradient id="SVGID_11_" gradientUnits="userSpaceOnUse" x1="-56.875" y1="585.6194" x2="2.986" y2="585.6194" gradientTransform="matrix(8 0 0 -8 455 4940.9492)">
		<stop  offset="0" style="stop-color:#4761AC"/>
		<stop  offset="1" style="stop-color:#54C2EF"/>
	</linearGradient>
	<path style="fill:url(#SVGID_11_);" d="M368,167.994c-4.418,0-8,3.582-8,8v160c0,4.418,3.582,8,8,8s8-3.582,8-8v-160
		C376,171.576,372.418,167.994,368,167.994z"/>
</g>
<g>
</g>
<g>
</g>
<g>
</g>
<g>
</g>
<g>
</g>
<g>
</g>
<g>
</g>
<g>
</g>
<g>
</g>
<g>
</g>
<g>
</g>
<g>
</g>
<g>
</g>
<g>
</g>
<g>
</g>
</svg>
